<svg width="250" height="250" viewBox="0 0 250 250" fill="none" xmlns="http://www.w3.org/2000/svg">
<path fill-rule="evenodd" clip-rule="evenodd" d="M245.75 161.103C245.75 158.303 243.48 156.032 240.679 156.032H18.8717C16.071 156.032 13.8006 158.303 13.8006 161.103C13.8006 163.904 16.071 166.174 18.8717 166.174H48.6032C51.4038 166.174 53.6742 168.445 53.6742 171.245C53.6742 174.046 51.4038 176.316 48.6032 176.316H42.6559C39.8552 176.316 37.5849 178.587 37.5849 181.387C37.5849 184.188 39.8552 186.459 42.6559 186.459H60.3056C63.1062 186.459 65.3766 188.729 65.3766 191.53C65.3766 194.33 63.1062 196.601 60.3056 196.601H52.4079C49.6073 196.601 47.3369 198.871 47.3369 201.672C47.3369 204.472 49.6073 206.743 52.4079 206.743H173.204C176.004 206.743 178.275 204.472 178.275 201.672C178.275 198.871 176.004 196.601 173.204 196.601H146.475C143.674 196.601 141.404 194.33 141.404 191.53C141.404 188.729 143.674 186.459 146.475 186.459H224.886C227.687 186.459 229.957 184.188 229.957 181.387C229.957 178.587 227.687 176.316 224.886 176.316H198.653C195.852 176.316 193.582 174.046 193.582 171.245C193.582 168.445 195.852 166.174 198.653 166.174H240.679C243.48 166.174 245.75 163.904 245.75 161.103ZM81.6403 196.601C78.8396 196.601 76.5692 194.33 76.5692 191.53C76.5692 188.729 78.8396 186.459 81.6403 186.459H98.2999C101.101 186.459 103.371 188.729 103.371 191.53C103.371 194.33 101.101 196.601 98.2999 196.601H81.6403Z" fill="#B7CEFF"/>
<path d="M184.571 201.672C184.571 198.871 186.841 196.601 189.642 196.601H213.777C216.577 196.601 218.848 198.871 218.848 201.672C218.848 204.472 216.577 206.743 213.777 206.743H189.642C186.841 206.743 184.571 204.472 184.571 201.672Z" fill="#B7CEFF"/>
<path d="M26.2856 181.387C26.2856 178.587 24.0152 176.316 21.2145 176.316H8.97144C6.17078 176.316 3.90039 178.587 3.90039 181.387C3.90039 184.188 6.17078 186.459 8.97144 186.459H21.2145C24.0152 186.459 26.2856 184.188 26.2856 181.387Z" fill="#B7CEFF"/>
<rect x="63.0762" y="100.222" width="61.0147" height="67.1162" fill="#5388FE"/>
<path d="M63.0779 100.222H124.093L107.314 81.9173H46.2988L63.0779 100.222Z" fill="#2D56B2"/>
<path d="M63.0768 100.222V122.34H40.959L63.0768 100.222Z" fill="#2D56B2"/>
<rect x="124.092" y="100.222" width="70.1669" height="67.1162" fill="#2D56B2"/>
<path d="M124.092 100.222H194.259L209.512 129.204H139.345L124.092 100.222Z" fill="#88AAF4"/>
<path d="M124.092 100.222H194.259L209.512 86.4934H139.345L124.092 100.222Z" fill="#B7CEFF"/>
<rect x="72.166" y="113.124" width="31.2065" height="7.80161" fill="#2D56B2"/>
<path d="M50.7109 54.8467L63.351 66.7505" stroke="#2D56B2" stroke-width="3.90081" stroke-linecap="round"/>
<path d="M75.668 44.8594L78.7607 59.9722" stroke="#2D56B2" stroke-width="3.90081" stroke-linecap="round"/>
<path d="M199.996 54.8467L187.356 66.7505" stroke="#2D56B2" stroke-width="3.90081" stroke-linecap="round"/>
<path d="M175.039 44.8594L171.946 59.9722" stroke="#2D56B2" stroke-width="3.90081" stroke-linecap="round"/>
</svg>
