<svg width="21" height="20" viewBox="0 0 21 20" fill="none" xmlns="http://www.w3.org/2000/svg">
<g clip-path="url(#clip0_1187_187)">
<path d="M10.5 8.18176V12.0545H15.8818C15.6455 13.2999 14.9363 14.3545 13.8727 15.0636L17.1181 17.5818C19.009 15.8364 20.0999 13.2728 20.0999 10.2273C20.0999 9.51824 20.0363 8.83636 19.9181 8.18187L10.5 8.18176Z" fill="#4285F4"/>
<path d="M4.89519 11.9033L4.16322 12.4636L1.57227 14.4818C3.21772 17.7454 6.59019 20 10.4993 20C13.1992 20 15.4628 19.1091 17.1174 17.5818L13.8719 15.0636C12.981 15.6636 11.8447 16.0273 10.4993 16.0273C7.89927 16.0273 5.69024 14.2728 4.89928 11.9091L4.89519 11.9033Z" fill="#34A853"/>
<path d="M1.57265 5.51819C0.890868 6.86359 0.5 8.38179 0.5 9.99994C0.5 11.6181 0.890868 13.1363 1.57265 14.4817C1.57265 14.4907 4.89998 11.8999 4.89998 11.8999C4.69998 11.2999 4.58177 10.6636 4.58177 9.99984C4.58177 9.33612 4.69998 8.69979 4.89998 8.0998L1.57265 5.51819Z" fill="#FBBC05"/>
<path d="M10.4995 3.98182C11.9722 3.98182 13.2813 4.49089 14.3267 5.47272L17.1903 2.60912C15.454 0.990971 13.1995 0 10.4995 0C6.5904 0 3.21772 2.24545 1.57227 5.51819L4.89949 8.10001C5.69035 5.73635 7.89947 3.98182 10.4995 3.98182Z" fill="#EA4335"/>
</g>
<defs>
<clipPath id="clip0_1187_187">
<rect width="20" height="20" fill="white" transform="translate(0.5)"/>
</clipPath>
</defs>
</svg>
